<svg width="19" height="21" viewBox="0 0 19 21" fill="none" xmlns="http://www.w3.org/2000/svg">
<path fill-rule="evenodd" clip-rule="evenodd" d="M9.5 0.5C14.7432 0.5 19 4.98083 19 10.5C19 16.0192 14.7432 20.5 9.5 20.5C4.25679 20.5 0 16.0192 0 10.5C0 4.98083 4.25679 0.5 9.5 0.5ZM9.5 1.33333C14.3062 1.33333 18.2083 5.44083 18.2083 10.5C18.2083 15.5592 14.3062 19.6667 9.5 19.6667C4.69379 19.6667 0.791667 15.5592 0.791667 10.5C0.791667 5.44083 4.69379 1.33333 9.5 1.33333ZM9.5 10.5H14.25V11.3333H8.70833V3.83333H9.5V10.5Z" fill="black"/>
</svg>
