<svg width="115" height="34" viewBox="0 0 115 34" fill="none" xmlns="http://www.w3.org/2000/svg">
<path d="M42.8522 12.6492V26.4208C42.8522 27.0704 42.3261 27.5965 41.6765 27.5965H41.579C40.9294 27.5965 40.4032 27.0704 40.4032 26.4208V12.8457C40.4032 7.06256 37.4134 4.02404 32.4147 4.02404C26.6316 4.02404 23.0539 7.89568 23.0539 13.9727V26.4208C23.0539 27.0704 22.5278 27.5965 21.8782 27.5965H21.7807C21.1311 27.5965 20.6049 27.0704 20.6049 26.4208V12.8457C20.6049 7.06256 17.6151 4.02404 12.6164 4.02404C6.83334 4.02404 3.25565 7.89568 3.25565 13.9727V26.4208C3.25565 27.0704 2.72947 27.5965 2.07986 27.5965H1.98242C1.33282 27.5965 0.806641 27.0704 0.806641 26.4208V3.19092C0.806641 2.54132 1.33282 2.01514 1.98242 2.01514C2.63203 2.01514 3.15821 2.54132 3.15821 3.19092V5.61882C3.15821 6.12064 3.79644 6.31714 4.08876 5.90951C5.96125 3.30785 9.04524 1.81863 12.9591 1.81863C16.7625 1.81863 19.7312 3.25588 21.4234 6.04756C21.8603 6.76699 22.8834 6.84332 23.3788 6.16286C25.3259 3.48812 28.5772 1.82026 32.66 1.82026C38.8345 1.81864 42.8522 5.49377 42.8522 12.6492Z" fill="#346046"/>
<path d="M89.1669 2.39346V3.58386C89.1669 3.90704 88.9022 4.17175 88.579 4.17013C82.8933 4.17013 79.5122 7.94432 79.5122 14.265V27.0297C79.5122 27.3415 79.2588 27.5948 78.947 27.5948H77.6267C77.3149 27.5948 77.0615 27.3415 77.0615 27.0297V2.5786C77.0615 2.26841 77.3165 2.01344 77.6267 2.01344H78.8496C79.1614 2.01344 79.4147 2.26679 79.4147 2.5786V5.42548C79.4147 5.97277 80.1179 6.20176 80.4346 5.75516C82.156 3.32889 84.9363 1.95822 88.592 1.8283C88.907 1.81693 89.1669 2.07678 89.1669 2.39346Z" fill="#346046"/>
<path d="M113.501 15.3937H92.9114C92.4843 15.3937 92.1481 15.7624 92.192 16.1879C92.7766 21.8264 97.1111 25.5876 102.966 25.5876C105.923 25.5876 108.676 24.6051 110.625 22.6011C110.92 22.2974 111.407 22.3023 111.687 22.6206L112.154 23.1516C112.401 23.4326 112.39 23.8548 112.135 24.1277C109.876 26.5442 106.548 27.793 102.919 27.793C95.1753 27.793 89.7349 22.4013 89.7349 14.8058C89.7349 7.21035 94.9788 1.81863 101.986 1.81863C108.994 1.81863 114.189 7.11128 114.189 14.7084C114.188 15.0868 113.881 15.3937 113.501 15.3937ZM92.9845 13.4823H110.992C111.425 13.4823 111.765 13.1006 111.709 12.6703C111.042 7.56113 107.156 3.97532 101.986 3.97532C96.8155 3.97532 92.9731 7.51729 92.2699 12.6654C92.2099 13.0974 92.5493 13.4823 92.9845 13.4823Z" fill="#346046"/>
<path d="M59.6113 6.70764C59.0413 6.70764 58.5801 6.24643 58.5801 5.6764V1.96716C58.5801 1.39713 59.0413 0.935913 59.6113 0.935913C60.1813 0.935913 60.6426 1.39713 60.6426 1.96716V5.67802C60.6409 6.24643 60.1797 6.70764 59.6113 6.70764Z" fill="#F79856"/>
<path d="M54.9268 7.97682C54.5712 7.97682 54.2236 7.79169 54.0336 7.46201L52.179 4.24809C51.8948 3.7544 52.0637 3.12428 52.5558 2.84008C53.0479 2.55425 53.6796 2.72478 53.9638 3.21685L55.8184 6.43076C56.1026 6.92446 55.9337 7.55458 55.4417 7.83878C55.2793 7.93135 55.1022 7.97682 54.9268 7.97682Z" fill="#F79856"/>
<path d="M51.5073 11.4219C51.3319 11.4219 51.1549 11.378 50.9925 11.2838L47.7785 9.42922C47.2848 9.14501 47.1159 8.5149 47.4018 8.0212C47.686 7.52913 48.3161 7.35861 48.8098 7.64443L52.0237 9.49905C52.5174 9.78325 52.6863 10.4134 52.4005 10.9071C52.2105 11.2367 51.8629 11.4219 51.5073 11.4219Z" fill="#F79856"/>
<path d="M46.5537 16.114C45.9853 16.114 45.5225 15.6528 45.5225 15.0828C45.5225 14.5144 45.9837 14.0515 46.5537 14.0515H50.2646C50.833 14.0515 51.2958 14.5127 51.2958 15.0828C51.2958 15.6512 50.8346 16.114 50.2646 16.114H46.5537Z" fill="#F3D758"/>
<path d="M48.3198 22.6545C47.9641 22.6545 47.6166 22.4693 47.4266 22.1397C47.1424 21.646 47.3113 21.0159 47.8033 20.7317L51.0173 18.877C51.5093 18.5912 52.1411 18.7617 52.4253 19.2538C52.7095 19.7475 52.5406 20.3776 52.0485 20.6618L48.8346 22.5164C48.6722 22.6106 48.4952 22.6545 48.3198 22.6545Z" fill="#F3D758"/>
<path d="M53.121 27.4346C52.9456 27.4346 52.7686 27.3908 52.6062 27.2966C52.1125 27.0124 51.9436 26.3823 52.2294 25.8886L54.084 22.6747C54.3682 22.1826 54.9983 22.0121 55.492 22.2979C55.9857 22.5821 56.1546 23.2122 55.8688 23.7059L54.0142 26.9198C53.8226 27.2495 53.4767 27.4346 53.121 27.4346Z" fill="#F3D758"/>
<path d="M59.6699 29.1737C59.0999 29.1737 58.6387 28.7124 58.6387 28.1424V24.4315C58.6387 23.8615 59.0999 23.4003 59.6699 23.4003C60.2399 23.4003 60.7012 23.8615 60.7012 24.4315V28.1424C60.7012 28.7124 60.2399 29.1737 59.6699 29.1737Z" fill="#96AA3B"/>
<path d="M66.213 27.4054C65.8573 27.4054 65.5098 27.2202 65.3198 26.8905L63.4652 23.6766C63.1809 23.1829 63.3498 22.5528 63.8419 22.2686C64.3356 21.9828 64.9657 22.1533 65.2499 22.6454L67.1046 25.8593C67.3888 26.353 67.2199 26.9831 66.7278 27.2673C66.5654 27.3615 66.3884 27.4054 66.213 27.4054Z" fill="#96AA3B"/>
<path d="M70.9921 22.6038C70.8167 22.6038 70.6397 22.56 70.4773 22.4658L67.2634 20.6112C66.7697 20.327 66.6008 19.6969 66.8866 19.2032C67.1708 18.7095 67.801 18.5406 68.2947 18.8264L71.5086 20.681C72.0023 20.9652 72.1712 21.5953 71.8853 22.089C71.6953 22.4187 71.3494 22.6038 70.9921 22.6038Z" fill="#96AA3B"/>
<path d="M72.7284 16.0572H69.0176C68.4475 16.0572 67.9863 15.596 67.9863 15.026C67.9863 14.456 68.4475 13.9948 69.0176 13.9948H72.7284C73.2985 13.9948 73.7597 14.456 73.7597 15.026C73.7581 15.596 73.2968 16.0572 72.7284 16.0572Z" fill="#E6EA8D"/>
<path d="M67.7485 11.3701C67.3928 11.3701 67.0453 11.185 66.8553 10.8553C66.5711 10.3616 66.74 9.73151 67.2321 9.4473L70.446 7.59268C70.9397 7.30848 71.5698 7.47738 71.854 7.96945C72.1382 8.46315 71.9693 9.09327 71.4772 9.37747L68.2633 11.2321C68.1009 11.3263 67.9239 11.3701 67.7485 11.3701Z" fill="#E6EA8D"/>
<path d="M64.306 7.94788C64.1307 7.94788 63.9536 7.90403 63.7912 7.80984C63.2975 7.52564 63.1286 6.89552 63.4145 6.40182L65.2691 3.18791C65.5533 2.69421 66.1834 2.52531 66.6771 2.81114C67.1708 3.09534 67.3397 3.72545 67.0539 4.21915L65.1993 7.43307C65.0092 7.76274 64.6617 7.94788 64.306 7.94788Z" fill="#E6EA8D"/>
<path d="M4.23709 30.1866V33.0432H3.94801V30.7582L2.82582 32.6811H2.68291L1.56072 30.7712V33.0448H1.27002V30.1882H1.51849L2.75924 32.3059L3.98699 30.1882H4.23709V30.1866Z" fill="#345F46"/>
<path d="M7.14576 32.7829V33.0443H5.12549V30.1877H7.08404V30.4492H5.42755V31.4658H6.9054V31.7224H5.42755V32.7829H7.14576Z" fill="#345F46"/>
<path d="M9.76586 33.0427L9.11301 32.1252C9.03993 32.1333 8.96685 32.1382 8.88403 32.1382H8.11749V33.0443H7.81543V30.1877H8.88403C9.60996 30.1877 10.0517 30.5547 10.0517 31.167C10.0517 31.6152 9.81459 31.9303 9.39884 32.0651L10.0972 33.0443H9.76586V33.0427ZM9.74962 31.1654C9.74962 30.709 9.44756 30.4476 8.87591 30.4476H8.11749V31.8799H8.87591C9.44756 31.8799 9.74962 31.6152 9.74962 31.1654Z" fill="#345F46"/>
<path d="M10.7261 30.1864H11.0281V33.043H10.7261V30.1864Z" fill="#345F46"/>
<path d="M11.6431 32.6971L11.7616 32.4648C11.9662 32.6646 12.3284 32.8124 12.7052 32.8124C13.2395 32.8124 13.4717 32.5883 13.4717 32.3057C13.4717 31.5213 11.7129 32.0036 11.7129 30.9464C11.7129 30.5258 12.0393 30.162 12.7653 30.162C13.0884 30.162 13.423 30.2562 13.6503 30.4153L13.548 30.6557C13.3028 30.4965 13.017 30.4186 12.7636 30.4186C12.2407 30.4186 12.0085 30.6508 12.0085 30.9366C12.0085 31.721 13.7673 31.2468 13.7673 32.2878C13.7673 32.7084 13.4327 33.0673 12.7019 33.0673C12.2764 33.0673 11.8558 32.9163 11.6431 32.6971Z" fill="#345F46"/>
<path d="M14.9016 30.4478H13.8979V30.1864H16.2073V30.4478H15.2037V33.043H14.9016V30.4478Z" fill="#345F46"/>
<path d="M18.6682 32.7829V33.0443H16.6479V30.1877H18.6065V30.4492H16.95V31.4658H18.4279V31.7224H16.95V32.7829H18.6682Z" fill="#345F46"/>
<path d="M22.3048 30.1864V33.043H22.0157V30.758L20.8935 32.6809H20.7506L19.6284 30.771V33.0446H19.3394V30.188H19.5878L20.8286 32.3057L22.0563 30.188H22.3048V30.1864Z" fill="#345F46"/>
<path d="M23.9683 31.6155C23.9683 30.7824 24.6049 30.162 25.4705 30.162C26.3279 30.162 26.9678 30.7775 26.9678 31.6155C26.9678 32.4535 26.3263 33.069 25.4705 33.069C24.6049 33.0673 23.9683 32.4486 23.9683 31.6155ZM26.6674 31.6155C26.6674 30.9334 26.1574 30.4316 25.4721 30.4316C24.7819 30.4316 24.2687 30.9334 24.2687 31.6155C24.2687 32.2976 24.7835 32.7994 25.4721 32.7994C26.1558 32.7994 26.6674 32.2976 26.6674 31.6155Z" fill="#345F46"/>
<path d="M29.5574 33.0427L28.9045 32.1252C28.8314 32.1333 28.7584 32.1382 28.6755 32.1382H27.909V33.0443H27.6069V30.1877H28.6755C29.4015 30.1877 29.8432 30.5547 29.8432 31.167C29.8432 31.6152 29.6061 31.9303 29.1903 32.0651L29.8887 33.0443H29.5574V33.0427ZM29.5411 31.1654C29.5411 30.709 29.2391 30.4476 28.6674 30.4476H27.909V31.8799H28.6674C29.2391 31.8799 29.5411 31.6152 29.5411 31.1654Z" fill="#345F46"/>
<path d="M30.5156 30.1864H30.8177V33.043H30.5156V30.1864Z" fill="#345F46"/>
<path d="M33.7268 32.7829V33.0443H31.7065V30.1877H33.6651V30.4492H32.0086V31.4658H33.4865V31.7224H32.0086V32.7829H33.7268Z" fill="#345F46"/>
<path d="M36.7833 30.1864V33.043H36.5348L34.6981 30.7255V33.043H34.396V30.1864H34.6445L36.4845 32.5038V30.1864H36.7833Z" fill="#345F46"/>
<path d="M38.2292 30.4478H37.2256V30.1864H39.5349V30.4478H38.5313V33.043H38.2292V30.4478Z" fill="#345F46"/>
<path d="M41.6262 32.2811H40.0347L39.692 33.0443H39.377L40.6827 30.1877H40.9798L42.2856 33.0443H41.9673L41.6262 32.2811ZM41.5158 32.0358L40.8304 30.5011L40.1451 32.0358H41.5158Z" fill="#345F46"/>
<path d="M43.1301 30.4478H42.1265V30.1864H44.4358V30.4478H43.4322V33.043H43.1301V30.4478Z" fill="#345F46"/>
<path d="M44.875 30.1864H45.1771V33.043H44.875V30.1864Z" fill="#345F46"/>
<path d="M45.8164 31.6155C45.8164 30.7824 46.453 30.162 47.3186 30.162C48.1761 30.162 48.8159 30.7775 48.8159 31.6155C48.8159 32.4535 48.1745 33.069 47.3186 33.069C46.453 33.0673 45.8164 32.4486 45.8164 31.6155ZM48.5155 31.6155C48.5155 30.9334 48.0056 30.4316 47.3202 30.4316C46.63 30.4316 46.1168 30.9334 46.1168 31.6155C46.1168 32.2976 46.6317 32.7994 47.3202 32.7994C48.0039 32.7994 48.5155 32.2976 48.5155 31.6155Z" fill="#345F46"/>
<path d="M51.8399 30.1864V33.043H51.5915L49.7547 30.7255V33.043H49.4526V30.1864H49.7011L51.5411 32.5038V30.1864H51.8399Z" fill="#345F46"/>
<path d="M54.0604 30.4478V31.57H55.5382V31.8315H54.0604V33.043H53.7583V30.1864H55.7169V30.4478H54.0604Z" fill="#345F46"/>
<path d="M56.0098 31.6155C56.0098 30.7824 56.6464 30.162 57.512 30.162C58.3695 30.162 59.0093 30.7775 59.0093 31.6155C59.0093 32.4535 58.3678 33.069 57.512 33.069C56.6464 33.0673 56.0098 32.4486 56.0098 31.6155ZM58.7072 31.6155C58.7072 30.9334 58.1973 30.4316 57.512 30.4316C56.8218 30.4316 56.3086 30.9334 56.3086 31.6155C56.3086 32.2976 56.8234 32.7994 57.512 32.7994C58.1973 32.7994 58.7072 32.2976 58.7072 31.6155Z" fill="#345F46"/>
<path d="M61.5969 33.0427L60.9441 32.1252C60.871 32.1333 60.7979 32.1382 60.7151 32.1382H59.9486V33.0443H59.6465V30.1877H60.7151C61.441 30.1877 61.8827 30.5547 61.8827 31.167C61.8827 31.6152 61.6456 31.9303 61.2299 32.0651L61.9282 33.0443H61.5969V33.0427ZM61.5807 31.1654C61.5807 30.709 61.2786 30.4476 60.707 30.4476H59.9486V31.8799H60.707C61.2786 31.8799 61.5807 31.6152 61.5807 31.1654Z" fill="#345F46"/>
<path d="M65.5359 33.0427L64.883 32.1252C64.81 32.1333 64.7369 32.1382 64.6541 32.1382H63.8875V33.0443H63.5854V30.1877H64.6541C65.38 30.1877 65.8217 30.5547 65.8217 31.167C65.8217 31.6152 65.5846 31.9303 65.1689 32.0651L65.8672 33.0443H65.5359V33.0427ZM65.5196 31.1654C65.5196 30.709 65.2176 30.4476 64.6459 30.4476H63.8875V31.8799H64.6459C65.2176 31.8799 65.5196 31.6152 65.5196 31.1654Z" fill="#345F46"/>
<path d="M66.4941 30.1864H66.7962V33.043H66.4941V30.1864Z" fill="#345F46"/>
<path d="M67.4126 32.6971L67.5311 32.4648C67.7358 32.6646 68.0979 32.8124 68.4731 32.8124C69.0074 32.8124 69.2412 32.5883 69.2412 32.3057C69.2412 31.5213 67.4824 32.0036 67.4824 30.9464C67.4824 30.5258 67.8089 30.162 68.5348 30.162C68.858 30.162 69.1925 30.2562 69.4199 30.4153L69.3176 30.6557C69.0723 30.4965 68.7865 30.4186 68.5332 30.4186C68.0102 30.4186 67.778 30.6508 67.778 30.9366C67.778 31.721 69.5368 31.2468 69.5368 32.2878C69.5368 32.7084 69.2023 33.0673 68.4715 33.0673C68.046 33.0673 67.6253 32.9163 67.4126 32.6971Z" fill="#345F46"/>
<path d="M70.1572 30.1864H70.4593V33.043H70.1572V30.1864Z" fill="#345F46"/>
<path d="M73.7354 30.1864V33.043H73.487L71.6502 30.7255V33.043H71.3481V30.1864H71.5966L73.4366 32.5038V30.1864H73.7354Z" fill="#345F46"/>
<path d="M76.6356 31.6155H76.9247V32.7052C76.6551 32.9455 76.2718 33.069 75.8756 33.069C75.0067 33.069 74.3701 32.4535 74.3701 31.6155C74.3701 30.7775 75.0067 30.162 75.8805 30.162C76.3124 30.162 76.6892 30.3 76.9409 30.5745L76.7525 30.7661C76.5122 30.529 76.2264 30.4316 75.8918 30.4316C75.1854 30.4316 74.6673 30.9334 74.6673 31.6155C74.6673 32.2927 75.1854 32.7994 75.8869 32.7994C76.1598 32.7994 76.4131 32.7377 76.634 32.5785V31.6155H76.6356Z" fill="#345F46"/>
<path d="M80.7869 32.7829V33.0443H78.7666V30.1877H80.7252V30.4492H79.0687V31.4658H80.5465V31.7224H79.0687V32.7829H80.7869Z" fill="#345F46"/>
<path d="M83.8419 30.1864V33.043H83.5934L81.7567 30.7255V33.043H81.4546V30.1864H81.7031L83.5431 32.5038V30.1864H83.8419Z" fill="#345F46"/>
<path d="M85.2898 30.4478H84.2861V30.1864H86.5955V30.4478H85.5918V33.043H85.2898V30.4478Z" fill="#345F46"/>
<path d="M88.9866 33.0427L88.3337 32.1252C88.2606 32.1333 88.1875 32.1382 88.1047 32.1382H87.3382V33.0443H87.0361V30.1877H88.1047C88.8307 30.1877 89.2724 30.5547 89.2724 31.167C89.2724 31.6152 89.0353 31.9303 88.6195 32.0651L89.3179 33.0443H88.9866V33.0427ZM88.9703 31.1654C88.9703 30.709 88.6683 30.4476 88.0966 30.4476H87.3382V31.8799H88.0966C88.6683 31.8799 88.9703 31.6152 88.9703 31.1654Z" fill="#345F46"/>
<path d="M91.9651 32.7829V33.0443H89.9448V30.1877H91.9034V30.4492H90.2469V31.4658H91.7247V31.7224H90.2469V32.7829H91.9651Z" fill="#345F46"/>
<path d="M94.8725 31.1656C94.8725 31.7747 94.4324 32.1417 93.7048 32.1417H92.9383V33.043H92.6362V30.1864H93.7048C94.4308 30.1864 94.8725 30.5534 94.8725 31.1656ZM94.5704 31.1656C94.5704 30.7093 94.2684 30.4478 93.6967 30.4478H92.9383V31.877H93.6967C94.2684 31.877 94.5704 31.6155 94.5704 31.1656Z" fill="#345F46"/>
<path d="M97.4333 33.0427L96.7805 32.1252C96.7074 32.1333 96.6343 32.1382 96.5515 32.1382H95.785V33.0443H95.4829V30.1877H96.5515C97.2774 30.1877 97.7192 30.5547 97.7192 31.167C97.7192 31.6152 97.4821 31.9303 97.0663 32.0651L97.7647 33.0443H97.4333V33.0427ZM97.4171 31.1654C97.4171 30.709 97.115 30.4476 96.5434 30.4476H95.785V31.8799H96.5434C97.115 31.8799 97.4171 31.6152 97.4171 31.1654Z" fill="#345F46"/>
<path d="M100.414 32.7829V33.0443H98.3936V30.1877H100.352V30.4492H98.6956V31.4658H100.173V31.7224H98.6956V32.7829H100.414Z" fill="#345F46"/>
<path d="M103.469 30.1864V33.043H103.22L101.384 30.7255V33.043H101.082V30.1864H101.33L103.17 32.5038V30.1864H103.469Z" fill="#345F46"/>
<path d="M106.379 32.7829V33.0443H104.359V30.1877H106.317V30.4492H104.661V31.4658H106.139V31.7224H104.661V32.7829H106.379Z" fill="#345F46"/>
<path d="M107.024 31.8234V30.1864H107.326V31.8104C107.326 32.4876 107.644 32.7978 108.2 32.7978C108.758 32.7978 109.077 32.4876 109.077 31.8104V30.1864H109.371V31.8234C109.371 32.6435 108.931 33.069 108.2 33.069C107.469 33.0674 107.024 32.6435 107.024 31.8234Z" fill="#345F46"/>
<path d="M112.192 33.0427L111.539 32.1252C111.466 32.1333 111.393 32.1382 111.31 32.1382H110.543V33.0443H110.241V30.1877H111.31C112.036 30.1877 112.477 30.5547 112.477 31.167C112.477 31.6152 112.24 31.9303 111.825 32.0651L112.523 33.0443H112.192V33.0427ZM112.175 31.1654C112.175 30.709 111.873 30.4476 111.302 30.4476H110.543V31.8799H111.302C111.873 31.8799 112.175 31.6152 112.175 31.1654Z" fill="#345F46"/>
<path d="M112.876 32.6971L112.995 32.4648C113.199 32.6646 113.561 32.8124 113.936 32.8124C114.471 32.8124 114.705 32.5883 114.705 32.3057C114.705 31.5213 112.946 32.0036 112.946 30.9464C112.946 30.5258 113.272 30.162 113.998 30.162C114.321 30.162 114.656 30.2562 114.883 30.4153L114.781 30.6557C114.536 30.4965 114.25 30.4186 113.997 30.4186C113.474 30.4186 113.241 30.6508 113.241 30.9366C113.241 31.721 115 31.2468 115 32.2878C115 32.7084 114.666 33.0673 113.935 33.0673C113.508 33.0673 113.087 32.9163 112.876 32.6971Z" fill="#345F46"/>
</svg>
