<svg width="72" height="72" viewBox="0 0 72 72" fill="none" xmlns="http://www.w3.org/2000/svg">
<path d="M58.5099 38.25C58.5099 33.7999 57.1903 29.4498 54.718 25.7497C52.2457 22.0496 48.7316 19.1657 44.6203 17.4627C40.509 15.7597 35.985 15.3142 31.6204 16.1823C27.2558 17.0505 23.2467 19.1934 20.1 22.3401C16.9533 25.4868 14.8104 29.4959 13.9422 33.8605C13.0741 38.225 13.5197 42.749 15.2226 46.8604C16.9256 50.9717 19.8095 54.4857 23.5096 56.9581C27.2097 59.4304 31.5598 60.75 36.0099 60.75C41.9773 60.75 47.7003 58.3795 51.9198 54.1599C56.1394 49.9403 58.5099 44.2174 58.5099 38.25ZM19.9857 12.8264C18.805 11.816 17.3041 11.2574 15.7501 11.25L15.3577 11.2613C11.7648 11.4778 9.00007 14.625 9.00991 18.4219C9.00991 20.2795 9.66523 21.1458 10.5399 22.2511C10.5942 22.3221 10.6629 22.381 10.7413 22.4238C10.8198 22.4667 10.9064 22.4927 10.9955 22.5H11.1193C11.189 22.4988 11.2574 22.4815 11.3194 22.4495C11.3813 22.4176 11.4351 22.3718 11.4765 22.3158L20.0223 13.9219C20.0952 13.8481 20.1522 13.7601 20.1897 13.6633C20.2272 13.5665 20.2444 13.4631 20.2402 13.3594C20.2367 13.2578 20.2123 13.1581 20.1685 13.0664C20.1247 12.9747 20.0625 12.893 19.9857 12.8264ZM52.0144 12.8264C53.1952 11.816 54.6961 11.2574 56.2501 11.25L56.6424 11.2613C60.2354 11.4778 63.0001 14.625 62.9902 18.4219C62.9902 20.2795 62.3349 21.1458 61.4602 22.2511C61.4058 22.3219 61.3371 22.3804 61.2586 22.4231C61.1801 22.4657 61.0936 22.4914 61.0046 22.4986H60.8809C60.8112 22.4973 60.7427 22.4801 60.6808 22.4481C60.6188 22.4162 60.5651 22.3704 60.5237 22.3144L51.9779 13.9219C51.9049 13.8481 51.8479 13.7601 51.8104 13.6633C51.7729 13.5665 51.7557 13.4631 51.7599 13.3594C51.7635 13.2578 51.7879 13.1581 51.8317 13.0664C51.8755 12.9747 51.9377 12.893 52.0144 12.8264Z" stroke="#FAFAFA" stroke-width="4.5" stroke-miterlimit="10"/>
<path d="M36.0099 22.5V38.25H24.7599M58.5099 60.75L52.8849 55.125M13.5099 60.75L19.1349 55.125" stroke="#FAFAFA" stroke-width="4.5" stroke-linecap="round" stroke-linejoin="round"/>
</svg>
